<svg width="79" height="87" viewBox="0 0 79 87" fill="none" xmlns="http://www.w3.org/2000/svg">
<path d="M16.8698 75.6791C16.7752 75.6791 16.6806 75.677 16.586 75.6721C14.8243 75.5929 13.1663 74.7779 12.0388 73.4353C9.96316 70.9595 10.139 67.3849 12.4473 65.1208L40.8553 37.2419C41.4082 36.6988 42.2947 36.7072 42.8385 37.2594C43.3816 37.8116 43.3731 38.6994 42.8209 39.2411L14.4123 67.12C13.1586 68.3506 13.0619 70.291 14.1873 71.6336C14.811 72.3764 15.7318 72.8277 16.7121 72.8719C17.7079 72.9237 18.6252 72.5621 19.3169 71.874C19.867 71.3288 20.7534 71.3323 21.3007 71.8803C21.8466 72.4297 21.8438 73.3168 21.2944 73.8627C20.1241 75.0253 18.5243 75.6791 16.8698 75.6791Z" fill="#18575B"/>
<path d="M68.8194 14.4668L74.6433 9.38417C75.2271 8.87472 75.2873 7.98966 74.7779 7.40663C74.2691 6.8243 73.382 6.76334 72.799 7.27279L66.8776 12.4409C60.4818 6.30925 52.8603 3.42704 50.5752 2.66251C45.063 0.811111 40.2579 0.265222 37.8852 0.104749C37.8529 0.102646 37.8214 0.101245 37.7899 0.101245H37.5572C27.2168 -0.407504 16.4714 3.25535 5.5957 10.9847L0.572679 14.5501C-0.365634 15.2194 -0.103551 16.74 1.01345 17.0448C2.70648 17.5094 5.9629 18.8584 8.7456 22.6698C10.8731 25.585 11.7617 29.2464 11.4638 32.8217C11.2235 35.706 10.192 38.2434 8.80026 40.7353C8.26068 41.7003 9.03642 42.8803 10.1233 42.8166C12.4239 42.6533 14.6453 42.5251 16.8793 43.2777C18.0664 43.6659 19.2086 44.2552 20.1827 44.9826C20.4349 45.1704 20.7292 45.2608 21.0208 45.2608C22.3382 45.2608 22.9177 43.525 21.8617 42.736C20.629 41.8159 19.2464 41.1011 17.7636 40.6169C16.0692 40.0472 14.2858 39.7921 12.4652 39.851C15.3881 33.444 14.845 26.2682 11.0111 21.0174C9.37208 18.7722 7.57394 17.2453 5.92926 16.2088C8.31744 15.7288 10.6881 15.3119 13.1379 15.3476C14.2493 15.3476 18.0881 15.4352 20.8196 16.5578C26.2547 18.8023 28.1755 25.9522 28.6247 27.3179C29.4326 29.7776 30.1047 29.369 31.2798 29.395C33.4676 29.4433 39.0477 29.8764 43.5865 34.3297C47.8464 38.5111 48.5163 43.5699 48.606 45.5467C48.6355 46.2208 48.3657 48.1143 51.0713 48.1269C54.3705 48.1416 57.2092 49.485 59.5498 51.2481C62.6282 53.569 64.3731 57.0104 65.4459 60.634C66.6414 64.6718 67.4031 68.8308 67.2595 73.0549C67.2132 74.4445 69.1032 75.0339 69.8488 73.8489C73.1571 68.5869 75.5305 62.936 76.904 57.0489C78.3616 50.7267 81.9901 29.278 68.8194 14.4668ZM74.1703 56.4162C73.2285 60.4497 71.7899 64.3704 69.8782 68.1216C69.7121 66.5547 69.443 64.9906 69.0723 63.4405L69.0471 63.3375C67.9932 58.9816 66.5496 53.0161 61.2379 49.0106C58.5274 46.9686 55.1231 45.7009 51.4035 45.3435C51.2843 42.9777 50.4644 37.1531 45.5514 32.3312C40.3119 27.189 33.9042 26.6011 31.3338 26.5934C30.7374 24.2304 28.35 16.6363 21.889 13.9671C17.5506 12.1844 12.1113 12.1935 7.56553 13.026C17.8092 5.82783 27.8517 2.42706 37.4521 2.90147C37.4752 2.90287 37.4983 2.90357 37.5222 2.90357H37.7422C39.9965 3.05914 44.5045 3.5798 49.6831 5.31908C51.9522 6.0787 59.8343 9.05972 65.9869 15.5109C79.152 29.3242 75.5789 50.3154 74.1703 56.4162Z" fill="#18575B"/>
<path d="M65.7907 81.457C65.7774 81.4262 65.764 81.3961 65.7486 81.3666C65.1474 80.0051 64.0367 78.9392 62.6134 78.3611L60.1426 77.3653C60.9723 77.2224 61.7978 77.031 62.6127 76.7956C63.5609 76.5202 63.9344 75.3282 63.3079 74.563C61.254 72.0487 60.734 70.7481 60.5595 69.4587C60.3157 67.7054 60.5939 66.0018 60.1075 64.2661C59.7649 63.0475 59.0536 60.5107 56.5519 58.5976C55.0943 57.4968 53.3614 56.8479 51.3992 56.6692C51.3193 56.6622 51.2079 56.6615 51.1252 56.6685C49.7861 56.7813 47.8036 57.2073 45.96 58.6012C45.4155 59.016 44.988 59.4035 44.6327 59.7847C42.8458 57.3083 39.9271 55.6475 36.6497 55.5466C32.6533 55.4407 28.8012 57.6839 27.0977 61.332C25.4257 64.9129 26.1419 69.3129 28.8937 72.1552C25.7193 73.0767 22.9927 75.3135 21.4944 78.2609C20.3081 80.5944 20.2422 82.998 20.2422 85.5445C20.2422 86.3182 20.8701 86.9461 21.6451 86.9461H64.7788C65.4305 86.9461 65.996 86.4976 66.1446 85.8641C66.3443 85.0085 66.565 83.2993 65.7907 81.457ZM49.6018 84.1423H23.0466C23.0466 81.9595 23.5021 79.9413 24.8392 78.1656C26.303 76.2217 28.5265 74.9085 30.9378 74.5721C32.722 74.3969 33.2531 72.0998 31.8797 71.041C29.551 69.3592 28.53 66.3095 29.2869 63.552C30.167 60.3432 33.2882 58.2641 36.567 58.3482C39.4184 58.4365 42.1016 60.222 43.1724 62.8828C44.3454 65.7972 43.295 69.1609 40.7947 71.0214C39.3539 71.9744 39.9328 74.3801 41.6531 74.5658C44.0805 74.9043 46.3258 76.2105 47.8044 78.1656C49.1456 79.9392 49.6018 81.9581 49.6018 84.1423ZM52.4069 84.1423C52.4069 81.5769 51.8743 79.1719 50.421 77.0163C48.8436 74.6772 46.4442 72.9407 43.7344 72.1545C45.6138 70.1966 46.6117 67.5666 46.4519 64.84C46.4028 64.011 46.2368 63.2121 45.9859 62.4483L46.1555 62.477C46.5171 61.9052 46.9999 61.3334 47.6565 60.8324C48.9137 59.8828 50.2871 59.5654 51.2535 59.4715C52.6396 59.6144 53.8519 60.072 54.8519 60.8282C56.6038 62.168 57.1251 64.0257 57.4054 65.0222C57.8476 66.6017 57.5561 68.2309 57.7796 69.8399C57.9913 71.4068 58.5862 72.8349 59.7985 74.5798C59.186 74.6898 58.5729 74.7697 57.9639 74.8202C55.6101 74.9975 55.0432 78.3576 57.2716 79.2314L61.5602 80.9595C63.364 81.5299 63.5244 83.6826 63.5293 84.143L52.4069 84.1423Z" fill="#18575B"/>
<path d="M61.8334 22.6623H55.6954V16.9582C55.6954 16.1845 55.0676 15.5566 54.2932 15.5566C53.5189 15.5566 52.891 16.1845 52.891 16.9582V22.6623H46.7538C45.9794 22.6623 45.3516 23.2902 45.3516 24.0638C45.3516 24.8375 45.9794 25.4653 46.7538 25.4653H52.891V31.1695C52.891 31.9431 53.5189 32.571 54.2932 32.571C55.0676 32.571 55.6954 31.9431 55.6954 31.1695V25.4653H61.8334C62.6077 25.4653 63.2356 24.8375 63.2356 24.0638C63.2356 23.2902 62.6084 22.6623 61.8334 22.6623Z" fill="#18575B"/>
</svg>
