<svg width="89" height="89" viewBox="0 0 89 89" fill="none" xmlns="http://www.w3.org/2000/svg">
<path d="M88.2645 54.3501L88.2438 54.3145C87.2941 52.8687 85.8446 51.824 84.1727 51.3805C82.5008 50.9369 80.724 51.1256 79.1826 51.9105L69.6795 56.7703C68.5413 55.1724 66.8667 54.0368 64.9611 53.5705C63.0555 53.1042 61.0458 53.3382 59.2984 54.2299L47.3305 60.3637C46.7062 60.6853 46.0134 60.8509 45.3112 60.8466C44.609 60.8422 43.9183 60.6678 43.2982 60.3385L35.1416 56.0081C32.0548 54.3602 28.5718 53.5999 25.0791 53.8114C21.5865 54.0229 18.2207 55.198 15.3553 57.2063L14.4343 52.8137C14.3942 52.6225 14.3166 52.4411 14.2062 52.28C14.0957 52.1189 13.9545 51.9812 13.7906 51.8748C13.6268 51.7684 13.4435 51.6954 13.2514 51.6601C13.0593 51.6247 12.862 51.6277 12.671 51.6688L1.17029 54.1498C0.787459 54.2324 0.452833 54.4631 0.239451 54.7915C0.0260696 55.1199 -0.048743 55.5194 0.0313423 55.9028L6.72713 87.8068C6.79541 88.1413 6.97698 88.4419 7.24121 88.6581C7.50544 88.8742 7.83615 88.9926 8.17752 88.9932C8.28216 88.9927 8.38648 88.9818 8.48895 88.9606L19.9956 86.4839C20.3788 86.4014 20.7137 86.1705 20.9271 85.8417C21.1405 85.513 21.2151 85.1131 21.1346 84.7295L20.5414 81.8747L24.4728 81.0279C25.6187 80.7829 26.7982 80.7378 27.9594 80.8945L46.4496 82.9217C50.2885 83.4295 54.1806 82.5159 57.3927 80.3532L87.0129 60.4808C87.9814 59.8252 88.6547 58.8165 88.8886 57.6706C89.1226 56.5247 88.8986 55.3328 88.2645 54.3501ZM9.3224 85.7395L3.24206 56.7392L11.8435 54.8854L17.9239 83.8872L9.3224 85.7395ZM85.3623 58.022L55.7421 77.8943C53.1157 79.656 49.935 80.3946 46.801 79.9706L28.3109 77.9433C26.8229 77.7427 25.3113 77.8029 23.844 78.1212L19.9259 78.9636L16.0167 60.3637L17.0296 59.6578C19.4483 57.9558 22.2918 56.9584 25.2437 56.7767C28.1955 56.595 31.1399 57.2361 33.7491 58.6285L41.9056 62.9589C42.948 63.5129 44.109 63.8065 45.2894 63.8145C46.4698 63.8225 47.6347 63.5447 48.6845 63.0049L60.6553 56.8638C61.852 56.2522 63.2377 56.1232 64.5266 56.5035C65.8156 56.8837 66.9094 57.7442 67.5825 58.9073C67.78 59.2479 67.8357 59.6525 67.7375 60.0337C67.6392 60.415 67.395 60.7423 67.0575 60.945L50.5545 70.7329C47.6693 72.4538 44.2323 72.9981 40.9565 72.253L26.073 68.6937L25.3849 71.5797L40.2817 75.1389C44.3026 76.0602 48.5239 75.3957 52.0672 73.2837L68.5702 63.4958C69.2462 63.09 69.8023 62.5119 70.1814 61.8205C70.5606 61.1292 70.7492 60.3495 70.7279 59.5614L80.5277 54.5473C81.4151 54.0967 82.4372 53.988 83.3995 54.2421C84.3618 54.4961 85.1971 55.0951 85.7464 55.925L85.7627 55.9502C85.9764 56.2804 86.054 56.6805 85.9794 57.0667C85.9048 57.4529 85.6836 57.7952 85.3623 58.022Z" fill="#18575B"/>
<path d="M9.60093 58.4089L6.69824 59.0186L7.30731 61.9183L10.21 61.3087L9.60093 58.4089Z" fill="#18575B"/>
<path d="M43.6173 56.0755C43.871 56.2604 44.1769 56.3601 44.4908 56.3601C44.8048 56.3601 45.1106 56.2604 45.3643 56.0755C60.2448 45.2214 69.4054 34.8714 72.7333 25.2171H80.3559C80.7058 26.2065 81.3941 27.0405 82.2994 27.5715C83.2046 28.1026 84.2685 28.2965 85.3029 28.119C86.3373 27.9415 87.2756 27.4041 87.9521 26.6017C88.6285 25.7993 88.9996 24.7835 88.9996 23.734C88.9996 22.6845 88.6285 21.6688 87.9521 20.8664C87.2756 20.064 86.3373 19.5266 85.3029 19.3491C84.2685 19.1716 83.2046 19.3655 82.2994 19.8966C81.3941 20.4276 80.7058 21.2615 80.3559 22.251H73.5578C73.8105 21.1578 73.9864 20.0483 74.0843 18.9306C74.3462 16.6785 74.151 14.3967 73.5104 12.2218C72.8698 10.0469 71.7969 8.02359 70.356 6.27307C68.8935 4.32464 66.9972 2.7438 64.8173 1.65593C62.6375 0.568063 60.2341 0.00310539 57.7979 0.00586947C52.9013 0.19733 48.2127 2.03558 44.4908 5.2231C40.7689 2.03558 36.0803 0.19733 31.1838 0.00586947C28.7471 0.00322097 26.3434 0.568211 24.1631 1.65605C21.9828 2.74389 20.0858 4.32467 18.6227 6.27307C17.1824 8.02397 16.1101 10.0473 15.4698 12.2221C14.8294 14.397 14.6342 16.6786 14.8959 18.9306C15.7901 30.3275 25.4534 42.8263 43.6173 56.0755ZM84.5321 22.251C84.8254 22.251 85.1121 22.338 85.356 22.501C85.5999 22.6639 85.79 22.8955 85.9022 23.1665C86.0145 23.4375 86.0438 23.7357 85.9866 24.0234C85.9294 24.311 85.7881 24.5753 85.5807 24.7827C85.3733 24.9901 85.1091 25.1313 84.8214 25.1886C84.5337 25.2458 84.2356 25.2164 83.9646 25.1042C83.6936 24.9919 83.462 24.8018 83.299 24.558C83.1361 24.3141 83.0491 24.0274 83.0491 23.734C83.0491 23.3407 83.2053 22.9635 83.4835 22.6854C83.7616 22.4073 84.1388 22.251 84.5321 22.251ZM20.8279 8.25586C20.8972 8.18725 20.9593 8.11171 21.0133 8.03044C22.2024 6.45877 23.7396 5.18407 25.5043 4.30639C27.2689 3.42871 29.2129 2.97193 31.1838 2.97189C38.056 2.97189 43.3889 8.20543 43.4423 8.25734C43.5801 8.39523 43.7436 8.50461 43.9237 8.57924C44.1037 8.65387 44.2967 8.69229 44.4916 8.69229C44.6864 8.69229 44.8794 8.65387 45.0595 8.57924C45.2395 8.50461 45.4031 8.39523 45.5408 8.25734C45.5942 8.20247 50.8885 2.97189 57.7979 2.97189C59.77 2.96445 61.7166 3.41795 63.4824 4.29621C65.2482 5.17448 66.7844 6.45322 67.9684 8.03044C68.0223 8.11171 68.0844 8.18725 68.1537 8.25586C69.3295 9.70381 70.1994 11.3752 70.7107 13.169C71.222 14.9627 71.3642 16.8415 71.1287 18.6918C71.03 19.8937 70.8266 21.0846 70.5206 22.251H58.6981L53.1931 12.6115C53.0552 12.368 52.8512 12.1684 52.6047 12.036C52.3581 11.9035 52.0792 11.8435 51.8 11.8629C51.5208 11.8823 51.2528 11.9803 51.027 12.1455C50.8011 12.3108 50.6266 12.5366 50.5237 12.7968L43.1902 31.1491L38.492 15.883C38.4078 15.6091 38.2461 15.3656 38.0264 15.1817C37.8067 14.9978 37.5384 14.8815 37.254 14.8469C36.9696 14.8122 36.6813 14.8606 36.4238 14.9864C36.1664 15.1121 35.9509 15.3097 35.8033 15.5552L31.7859 22.251H22.2457V25.2171H32.6267C32.8826 25.217 33.1342 25.1507 33.3569 25.0247C33.5796 24.8987 33.7659 24.7171 33.8977 24.4978L36.6309 19.9346L41.5856 36.0341C41.6771 36.326 41.8566 36.5824 42.0996 36.7682C42.3425 36.9541 42.6369 37.0603 42.9426 37.0722H43.0078C43.3044 37.0723 43.5942 36.9835 43.8398 36.8172C44.0854 36.651 44.2755 36.4148 44.3855 36.1394L52.1417 16.7461L56.5507 24.4578C56.6788 24.6869 56.8655 24.878 57.0916 25.0114C57.3178 25.1448 57.5753 25.2158 57.8379 25.2171H69.5537C66.8086 32.205 59.9809 41.5776 44.4908 53.0368C23.5937 37.5779 18.4625 25.9111 17.8619 18.8104C17.6085 16.9419 17.7409 15.0411 18.2511 13.2258C18.7612 11.4104 19.6382 9.71892 20.8279 8.25586Z" fill="#18575B"/>
<path d="M11.8641 22.252H0V25.218H11.8641V22.252Z" fill="#18575B"/>
</svg>
