<svg width="698" height="115" viewBox="0 0 698 115" fill="none" xmlns="http://www.w3.org/2000/svg">
<path d="M88.2645 67.3501L88.2438 67.3145C87.2941 65.8687 85.8446 64.824 84.1727 64.3805C82.5008 63.9369 80.724 64.1256 79.1826 64.9105L69.6795 69.7703C68.5413 68.1724 66.8667 67.0368 64.9611 66.5705C63.0555 66.1042 61.0458 66.3382 59.2984 67.2299L47.3305 73.3637C46.7062 73.6853 46.0134 73.8509 45.3112 73.8466C44.609 73.8422 43.9183 73.6678 43.2982 73.3385L35.1416 69.0081C32.0548 67.3602 28.5718 66.5999 25.0791 66.8114C21.5865 67.0229 18.2207 68.198 15.3553 70.2063L14.4343 65.8137C14.3942 65.6225 14.3166 65.4411 14.2062 65.28C14.0957 65.1189 13.9545 64.9812 13.7906 64.8748C13.6268 64.7684 13.4435 64.6954 13.2514 64.6601C13.0593 64.6247 12.862 64.6277 12.671 64.6688L1.17029 67.1498C0.787459 67.2324 0.452833 67.4631 0.239451 67.7915C0.0260696 68.1199 -0.048743 68.5194 0.0313423 68.9028L6.72713 100.807C6.79541 101.141 6.97698 101.442 7.24121 101.658C7.50544 101.874 7.83615 101.993 8.17752 101.993C8.28216 101.993 8.38648 101.982 8.48895 101.961L19.9956 99.4839C20.3788 99.4014 20.7137 99.1705 20.9271 98.8417C21.1405 98.513 21.2151 98.1131 21.1346 97.7295L20.5414 94.8747L24.4728 94.0279C25.6187 93.7829 26.7982 93.7378 27.9594 93.8945L46.4496 95.9217C50.2885 96.4295 54.1806 95.5159 57.3927 93.3532L87.0129 73.4808C87.9814 72.8252 88.6547 71.8165 88.8886 70.6706C89.1226 69.5247 88.8986 68.3328 88.2645 67.3501ZM9.3224 98.7395L3.24206 69.7392L11.8435 67.8854L17.9239 96.8872L9.3224 98.7395ZM85.3623 71.022L55.7421 90.8943C53.1157 92.656 49.935 93.3946 46.801 92.9706L28.3109 90.9433C26.8229 90.7427 25.3113 90.8029 23.844 91.1212L19.9259 91.9636L16.0167 73.3637L17.0296 72.6578C19.4483 70.9558 22.2918 69.9584 25.2437 69.7767C28.1955 69.595 31.1399 70.2361 33.7491 71.6285L41.9056 75.9589C42.948 76.5129 44.109 76.8065 45.2894 76.8145C46.4698 76.8225 47.6347 76.5447 48.6845 76.0049L60.6553 69.8638C61.852 69.2522 63.2377 69.1232 64.5266 69.5035C65.8156 69.8837 66.9094 70.7442 67.5825 71.9073C67.78 72.2479 67.8357 72.6525 67.7375 73.0337C67.6392 73.415 67.395 73.7423 67.0575 73.945L50.5545 83.7329C47.6693 85.4538 44.2323 85.9981 40.9565 85.253L26.073 81.6937L25.3849 84.5797L40.2817 88.1389C44.3026 89.0602 48.5239 88.3957 52.0672 86.2837L68.5702 76.4958C69.2462 76.09 69.8023 75.5119 70.1814 74.8205C70.5606 74.1292 70.7492 73.3495 70.7279 72.5614L80.5277 67.5473C81.4151 67.0967 82.4372 66.988 83.3995 67.2421C84.3618 67.4961 85.1971 68.0951 85.7464 68.925L85.7627 68.9502C85.9764 69.2804 86.054 69.6805 85.9794 70.0667C85.9048 70.4529 85.6836 70.7952 85.3623 71.022Z" fill="#18575B"/>
<path d="M9.60093 71.4089L6.69824 72.0186L7.30731 74.9183L10.21 74.3087L9.60093 71.4089Z" fill="#18575B"/>
<path d="M43.6173 69.0755C43.871 69.2604 44.1769 69.3601 44.4908 69.3601C44.8048 69.3601 45.1106 69.2604 45.3643 69.0755C60.2448 58.2214 69.4054 47.8714 72.7333 38.2171H80.3559C80.7058 39.2065 81.3941 40.0405 82.2994 40.5715C83.2046 41.1026 84.2685 41.2965 85.3029 41.119C86.3373 40.9415 87.2756 40.4041 87.9521 39.6017C88.6285 38.7993 88.9996 37.7835 88.9996 36.734C88.9996 35.6845 88.6285 34.6688 87.9521 33.8664C87.2756 33.064 86.3373 32.5266 85.3029 32.3491C84.2685 32.1716 83.2046 32.3655 82.2994 32.8966C81.3941 33.4276 80.7058 34.2615 80.3559 35.251H73.5578C73.8105 34.1578 73.9864 33.0483 74.0843 31.9306C74.3462 29.6785 74.151 27.3967 73.5104 25.2218C72.8698 23.0469 71.7969 21.0236 70.356 19.2731C68.8935 17.3246 66.9972 15.7438 64.8173 14.6559C62.6375 13.5681 60.2341 13.0031 57.7979 13.0059C52.9013 13.1973 48.2127 15.0356 44.4908 18.2231C40.7689 15.0356 36.0803 13.1973 31.1838 13.0059C28.7471 13.0032 26.3434 13.5682 24.1631 14.656C21.9828 15.7439 20.0858 17.3247 18.6227 19.2731C17.1824 21.024 16.1101 23.0473 15.4698 25.2221C14.8294 27.397 14.6342 29.6786 14.8959 31.9306C15.7901 43.3275 25.4534 55.8263 43.6173 69.0755ZM84.5321 35.251C84.8254 35.251 85.1121 35.338 85.356 35.501C85.5999 35.6639 85.79 35.8955 85.9022 36.1665C86.0145 36.4375 86.0438 36.7357 85.9866 37.0234C85.9294 37.311 85.7881 37.5753 85.5807 37.7827C85.3733 37.9901 85.1091 38.1313 84.8214 38.1886C84.5337 38.2458 84.2356 38.2164 83.9646 38.1042C83.6936 37.9919 83.462 37.8018 83.299 37.558C83.1361 37.3141 83.0491 37.0274 83.0491 36.734C83.0491 36.3407 83.2053 35.9635 83.4835 35.6854C83.7616 35.4073 84.1388 35.251 84.5321 35.251ZM20.8279 21.2559C20.8972 21.1872 20.9593 21.1117 21.0133 21.0304C22.2024 19.4588 23.7396 18.1841 25.5043 17.3064C27.2689 16.4287 29.2129 15.9719 31.1838 15.9719C38.056 15.9719 43.3889 21.2054 43.4423 21.2573C43.5801 21.3952 43.7436 21.5046 43.9237 21.5792C44.1037 21.6539 44.2967 21.6923 44.4916 21.6923C44.6864 21.6923 44.8794 21.6539 45.0595 21.5792C45.2395 21.5046 45.4031 21.3952 45.5408 21.2573C45.5942 21.2025 50.8885 15.9719 57.7979 15.9719C59.77 15.9644 61.7166 16.4179 63.4824 17.2962C65.2482 18.1745 66.7844 19.4532 67.9684 21.0304C68.0223 21.1117 68.0844 21.1872 68.1537 21.2559C69.3295 22.7038 70.1994 24.3752 70.7107 26.169C71.222 27.9627 71.3642 29.8415 71.1287 31.6918C71.03 32.8937 70.8266 34.0846 70.5206 35.251H58.6981L53.1931 25.6115C53.0552 25.368 52.8512 25.1684 52.6047 25.036C52.3581 24.9035 52.0792 24.8435 51.8 24.8629C51.5208 24.8823 51.2528 24.9803 51.027 25.1455C50.8011 25.3108 50.6266 25.5366 50.5237 25.7968L43.1902 44.1491L38.492 28.883C38.4078 28.6091 38.2461 28.3656 38.0264 28.1817C37.8067 27.9978 37.5384 27.8815 37.254 27.8469C36.9696 27.8122 36.6813 27.8606 36.4238 27.9864C36.1664 28.1121 35.9509 28.3097 35.8033 28.5552L31.7859 35.251H22.2457V38.2171H32.6267C32.8826 38.217 33.1342 38.1507 33.3569 38.0247C33.5796 37.8987 33.7659 37.7171 33.8977 37.4978L36.6309 32.9346L41.5856 49.0341C41.6771 49.326 41.8566 49.5824 42.0996 49.7682C42.3425 49.9541 42.6369 50.0603 42.9426 50.0722H43.0078C43.3044 50.0723 43.5942 49.9835 43.8398 49.8172C44.0854 49.651 44.2755 49.4148 44.3855 49.1394L52.1417 29.7461L56.5507 37.4578C56.6788 37.6869 56.8655 37.878 57.0916 38.0114C57.3178 38.1448 57.5753 38.2158 57.8379 38.2171H69.5537C66.8086 45.205 59.9809 54.5776 44.4908 66.0368C23.5937 50.5779 18.4625 38.9111 17.8619 31.8104C17.6085 29.9419 17.7409 28.0411 18.2511 26.2258C18.7612 24.4104 19.6382 22.7189 20.8279 21.2559Z" fill="#18575B"/>
<path d="M11.8641 35.252H0V38.218H11.8641V35.252Z" fill="#18575B"/>
<path d="M146.45 47.7C143.6 47.7 141.117 47.025 139 45.675C136.9 44.3083 135.267 42.3583 134.1 39.825C132.933 37.2917 132.35 34.25 132.35 30.7C132.35 27.0333 132.95 23.9583 134.15 21.475C135.367 18.975 137.033 17.0917 139.15 15.825C141.283 14.5417 143.717 13.9 146.45 13.9C150.233 13.9 153.183 14.8167 155.3 16.65C157.433 18.4833 158.8 20.8667 159.4 23.8L153.1 24.95C152.583 23.25 151.758 21.875 150.625 20.825C149.492 19.775 148.1 19.25 146.45 19.25C145 19.25 143.692 19.675 142.525 20.525C141.358 21.3583 140.425 22.625 139.725 24.325C139.042 26.025 138.7 28.15 138.7 30.7C138.7 33.1 139 35.1667 139.6 36.9C140.217 38.6333 141.1 39.9667 142.25 40.9C143.4 41.8333 144.8 42.3 146.45 42.3C148.567 42.3 150.2 41.7417 151.35 40.625C152.517 39.4917 153.1 38.05 153.1 36.3H159.4C159.4 38.7167 158.875 40.775 157.825 42.475C156.792 44.1583 155.308 45.45 153.375 46.35C151.442 47.25 149.133 47.7 146.45 47.7ZM175.889 47.7C173.673 47.7 171.664 47.225 169.864 46.275C168.081 45.325 166.664 43.9083 165.614 42.025C164.564 40.125 164.039 37.75 164.039 34.9C164.039 32 164.564 29.6 165.614 27.7C166.664 25.8 168.081 24.3833 169.864 23.45C171.664 22.5167 173.673 22.05 175.889 22.05C178.073 22.05 180.048 22.5167 181.814 23.45C183.598 24.3833 185.014 25.8 186.064 27.7C187.114 29.6 187.639 32 187.639 34.9C187.639 37.75 187.114 40.125 186.064 42.025C185.014 43.9083 183.598 45.325 181.814 46.275C180.048 47.225 178.073 47.7 175.889 47.7ZM175.689 42.55C176.856 42.55 177.889 42.2667 178.789 41.7C179.706 41.1167 180.423 40.2583 180.939 39.125C181.473 37.9917 181.739 36.5833 181.739 34.9C181.739 32.3333 181.231 30.4 180.214 29.1C179.214 27.8 177.839 27.15 176.089 27.15C174.906 27.15 173.856 27.4417 172.939 28.025C172.023 28.5917 171.298 29.45 170.764 30.6C170.248 31.75 169.989 33.1833 169.989 34.9C169.989 37.4333 170.498 39.3417 171.514 40.625C172.548 41.9083 173.939 42.55 175.689 42.55ZM227.61 47V32.8C227.61 31 227.176 29.6417 226.31 28.725C225.443 27.8083 224.31 27.35 222.91 27.35C221.143 27.35 219.751 28.0667 218.735 29.5C217.718 30.9333 217.21 33.1 217.21 36H214.76C214.76 33.45 214.993 31.2917 215.46 29.525C215.943 27.7417 216.618 26.3083 217.485 25.225C218.368 24.125 219.401 23.325 220.585 22.825C221.768 22.3083 223.076 22.05 224.51 22.05C226.493 22.05 228.151 22.5 229.485 23.4C230.835 24.2833 231.851 25.5333 232.535 27.15C233.218 28.7667 233.56 30.65 233.56 32.8V47H227.61ZM194.66 47V22.75H199.81L200.46 26.9C201.26 25.2833 202.318 24.075 203.635 23.275C204.951 22.4583 206.46 22.05 208.16 22.05C210.16 22.05 211.826 22.5 213.16 23.4C214.51 24.2833 215.518 25.5333 216.185 27.15C216.868 28.7667 217.21 30.65 217.21 32.8V47H211.31V32.8C211.31 31 210.876 29.6417 210.01 28.725C209.143 27.8083 208.01 27.35 206.61 27.35C205.426 27.35 204.376 27.675 203.46 28.325C202.56 28.975 201.851 29.9583 201.335 31.275C200.818 32.575 200.56 34.2 200.56 36.15V47H194.66ZM254.271 47.7C252.487 47.7 250.971 47.3167 249.721 46.55C248.471 45.7833 247.512 44.625 246.846 43.075C246.196 41.5083 245.871 39.55 245.871 37.2H248.021C248.021 38.2833 248.271 39.2083 248.771 39.975C249.271 40.7417 249.929 41.3333 250.746 41.75C251.579 42.15 252.471 42.35 253.421 42.35C254.404 42.35 255.371 42.0833 256.321 41.55C257.287 41 258.087 40.175 258.721 39.075C259.354 37.9583 259.671 36.55 259.671 34.85C259.671 33.3 259.404 31.9667 258.871 30.85C258.337 29.7167 257.604 28.85 256.671 28.25C255.754 27.65 254.704 27.35 253.521 27.35C252.521 27.35 251.604 27.575 250.771 28.025C249.937 28.475 249.271 29.1333 248.771 30C248.271 30.85 248.021 31.8833 248.021 33.1H245.871C245.871 30.55 246.262 28.4667 247.046 26.85C247.829 25.2167 248.879 24.0083 250.196 23.225C251.512 22.4417 252.954 22.05 254.521 22.05C256.437 22.05 258.237 22.5583 259.921 23.575C261.621 24.5917 262.996 26.0583 264.046 27.975C265.096 29.875 265.621 32.1667 265.621 34.85C265.621 37.55 265.087 39.8583 264.021 41.775C262.954 43.6917 261.554 45.1583 259.821 46.175C258.104 47.1917 256.254 47.7 254.271 47.7ZM242.121 58.85V22.75H246.971L248.021 28.75V58.85H242.121ZM272.638 47V22.65H278.538V47H272.638ZM277.088 36.35C277.088 33.1667 277.447 30.5333 278.163 28.45C278.88 26.3667 279.838 24.825 281.038 23.825C282.255 22.8083 283.605 22.3 285.088 22.3C285.488 22.3 285.863 22.325 286.213 22.375C286.58 22.425 286.938 22.5 287.288 22.6L287.188 28.5C286.755 28.4 286.288 28.3167 285.788 28.25C285.288 28.1833 284.838 28.15 284.438 28.15C283.138 28.15 282.047 28.4667 281.163 29.1C280.297 29.7167 279.638 30.6333 279.188 31.85C278.755 33.0667 278.538 34.5667 278.538 36.35H277.088ZM301.317 47.7C299.251 47.7 297.359 47.1667 295.642 46.1C293.926 45.0333 292.551 43.5417 291.517 41.625C290.484 39.6917 289.967 37.4333 289.967 34.85C289.967 32.1833 290.476 29.8917 291.492 27.975C292.526 26.0583 293.901 24.5917 295.617 23.575C297.334 22.5583 299.234 22.05 301.317 22.05C303.251 22.05 304.917 22.4417 306.317 23.225C307.734 23.9917 308.867 25.0417 309.717 26.375C310.584 27.6917 311.167 29.1833 311.467 30.85C311.767 32.5167 311.784 34.2333 311.517 36H294.667V32.8H307.342L306.192 33.55C306.242 32.7667 306.201 31.975 306.067 31.175C305.951 30.375 305.717 29.6417 305.367 28.975C305.017 28.3083 304.517 27.775 303.867 27.375C303.234 26.9583 302.417 26.75 301.417 26.75C300.217 26.75 299.201 27.05 298.367 27.65C297.534 28.25 296.901 29.0667 296.467 30.1C296.034 31.1333 295.817 32.3 295.817 33.6V35.95C295.817 37.3167 296.017 38.525 296.417 39.575C296.834 40.625 297.442 41.45 298.242 42.05C299.059 42.65 300.084 42.95 301.317 42.95C302.467 42.95 303.434 42.6833 304.217 42.15C305.001 41.6167 305.501 40.8167 305.717 39.75H311.667C311.417 41.3167 310.826 42.7 309.892 43.9C308.976 45.0833 307.784 46.0167 306.317 46.7C304.851 47.3667 303.184 47.7 301.317 47.7ZM335.431 47V32.8C335.431 31 334.998 29.6417 334.131 28.725C333.264 27.8083 332.131 27.35 330.731 27.35C329.548 27.35 328.498 27.675 327.581 28.325C326.681 28.975 325.973 29.9583 325.456 31.275C324.939 32.575 324.681 34.2 324.681 36.15H322.731C322.731 33 323.123 30.3833 323.906 28.3C324.689 26.2 325.798 24.6333 327.231 23.6C328.664 22.5667 330.348 22.05 332.281 22.05C334.281 22.05 335.948 22.5 337.281 23.4C338.631 24.2833 339.639 25.5333 340.306 27.15C340.989 28.7667 341.331 30.65 341.331 32.8V47H335.431ZM318.781 47V12.7H324.681V47H318.781ZM358.983 47.7C356.917 47.7 355.025 47.1667 353.308 46.1C351.592 45.0333 350.217 43.5417 349.183 41.625C348.15 39.6917 347.633 37.4333 347.633 34.85C347.633 32.1833 348.142 29.8917 349.158 27.975C350.192 26.0583 351.567 24.5917 353.283 23.575C355 22.5583 356.9 22.05 358.983 22.05C360.917 22.05 362.583 22.4417 363.983 23.225C365.4 23.9917 366.533 25.0417 367.383 26.375C368.25 27.6917 368.833 29.1833 369.133 30.85C369.433 32.5167 369.45 34.2333 369.183 36H352.333V32.8H365.008L363.858 33.55C363.908 32.7667 363.867 31.975 363.733 31.175C363.617 30.375 363.383 29.6417 363.033 28.975C362.683 28.3083 362.183 27.775 361.533 27.375C360.9 26.9583 360.083 26.75 359.083 26.75C357.883 26.75 356.867 27.05 356.033 27.65C355.2 28.25 354.567 29.0667 354.133 30.1C353.7 31.1333 353.483 32.3 353.483 33.6V35.95C353.483 37.3167 353.683 38.525 354.083 39.575C354.5 40.625 355.108 41.45 355.908 42.05C356.725 42.65 357.75 42.95 358.983 42.95C360.133 42.95 361.1 42.6833 361.883 42.15C362.667 41.6167 363.167 40.8167 363.383 39.75H369.333C369.083 41.3167 368.492 42.7 367.558 43.9C366.642 45.0833 365.45 46.0167 363.983 46.7C362.517 47.3667 360.85 47.7 358.983 47.7ZM393.097 47V32.8C393.097 31 392.664 29.6417 391.797 28.725C390.93 27.8083 389.797 27.35 388.397 27.35C387.214 27.35 386.164 27.675 385.247 28.325C384.347 28.975 383.639 29.9583 383.122 31.275C382.605 32.575 382.347 34.2 382.347 36.15H380.397C380.397 33 380.789 30.3833 381.572 28.3C382.355 26.2 383.464 24.6333 384.897 23.6C386.33 22.5667 388.014 22.05 389.947 22.05C391.947 22.05 393.614 22.5 394.947 23.4C396.297 24.2833 397.305 25.5333 397.972 27.15C398.655 28.7667 398.997 30.65 398.997 32.8V47H393.097ZM376.447 47V22.75H381.597L382.347 27.55V47H376.447ZM416.649 47.7C414.316 47.7 412.308 47.3833 410.624 46.75C408.958 46.1 407.674 45.175 406.774 43.975C405.874 42.7583 405.416 41.3 405.399 39.6H410.849C410.899 40.8 411.374 41.675 412.274 42.225C413.174 42.775 414.399 43.05 415.949 43.05C416.799 43.05 417.549 42.925 418.199 42.675C418.866 42.425 419.383 42.0833 419.749 41.65C420.116 41.2167 420.299 40.7333 420.299 40.2C420.299 39.5167 420.049 38.9833 419.549 38.6C419.066 38.2 418.283 37.8333 417.199 37.5L411.899 35.6C409.999 34.9167 408.541 34.0167 407.524 32.9C406.508 31.7833 405.999 30.45 405.999 28.9C405.999 26.85 406.924 25.2 408.774 23.95C410.641 22.6833 413.133 22.05 416.249 22.05C419.349 22.05 421.741 22.7333 423.424 24.1C425.124 25.45 425.999 27.1667 426.049 29.25H420.499C420.416 28.45 420.033 27.8167 419.349 27.35C418.666 26.8833 417.633 26.65 416.249 26.65C414.999 26.65 414.016 26.9083 413.299 27.425C412.599 27.925 412.249 28.5167 412.249 29.2C412.249 30.35 413.233 31.2167 415.199 31.8L420.949 33.95C422.816 34.5833 424.266 35.4 425.299 36.4C426.333 37.4 426.849 38.6667 426.849 40.2C426.849 41.4833 426.416 42.7 425.549 43.85C424.699 44.9833 423.508 45.9083 421.974 46.625C420.441 47.3417 418.666 47.7 416.649 47.7ZM437.416 18.3C436.266 18.3 435.366 18 434.716 17.4C434.083 16.7833 433.766 15.9333 433.766 14.85C433.766 13.8 434.083 12.9667 434.716 12.35C435.366 11.7167 436.266 11.4 437.416 11.4C438.55 11.4 439.441 11.7167 440.091 12.35C440.741 12.9667 441.066 13.8 441.066 14.85C441.066 15.9333 440.741 16.7833 440.091 17.4C439.441 18 438.55 18.3 437.416 18.3ZM434.466 47V22.65H440.366V47H434.466ZM446.323 22.75H453.123L458.923 41.95H458.473L464.273 22.75H471.073L462.023 47H455.373L446.323 22.75ZM485.35 47.7C483.284 47.7 481.392 47.1667 479.675 46.1C477.959 45.0333 476.584 43.5417 475.55 41.625C474.517 39.6917 474 37.4333 474 34.85C474 32.1833 474.509 29.8917 475.525 27.975C476.559 26.0583 477.934 24.5917 479.65 23.575C481.367 22.5583 483.267 22.05 485.35 22.05C487.284 22.05 488.95 22.4417 490.35 23.225C491.767 23.9917 492.9 25.0417 493.75 26.375C494.617 27.6917 495.2 29.1833 495.5 30.85C495.8 32.5167 495.817 34.2333 495.55 36H478.7V32.8H491.375L490.225 33.55C490.275 32.7667 490.234 31.975 490.1 31.175C489.984 30.375 489.75 29.6417 489.4 28.975C489.05 28.3083 488.55 27.775 487.9 27.375C487.267 26.9583 486.45 26.75 485.45 26.75C484.25 26.75 483.234 27.05 482.4 27.65C481.567 28.25 480.934 29.0667 480.5 30.1C480.067 31.1333 479.85 32.3 479.85 33.6V35.95C479.85 37.3167 480.05 38.525 480.45 39.575C480.867 40.625 481.475 41.45 482.275 42.05C483.092 42.65 484.117 42.95 485.35 42.95C486.5 42.95 487.467 42.6833 488.25 42.15C489.034 41.6167 489.534 40.8167 489.75 39.75H495.7C495.45 41.3167 494.859 42.7 493.925 43.9C493.009 45.0833 491.817 46.0167 490.35 46.7C488.884 47.3667 487.217 47.7 485.35 47.7ZM134.65 69.55H143.1L152.25 89.4H151.75L160.9 69.55H169.05V102H163.1V76.35H164L153.9 98.45H150.05L140 76.45H140.55V102H134.65V69.55ZM187.401 102.7C185.335 102.7 183.443 102.167 181.726 101.1C180.01 100.033 178.635 98.5417 177.601 96.625C176.568 94.6917 176.051 92.4333 176.051 89.85C176.051 87.1833 176.56 84.8917 177.576 82.975C178.61 81.0583 179.985 79.5917 181.701 78.575C183.418 77.5583 185.318 77.05 187.401 77.05C189.335 77.05 191.001 77.4417 192.401 78.225C193.818 78.9917 194.951 80.0417 195.801 81.375C196.668 82.6917 197.251 84.1833 197.551 85.85C197.851 87.5167 197.868 89.2333 197.601 91H180.751V87.8H193.426L192.276 88.55C192.326 87.7667 192.285 86.975 192.151 86.175C192.035 85.375 191.801 84.6417 191.451 83.975C191.101 83.3083 190.601 82.775 189.951 82.375C189.318 81.9583 188.501 81.75 187.501 81.75C186.301 81.75 185.285 82.05 184.451 82.65C183.618 83.25 182.985 84.0667 182.551 85.1C182.118 86.1333 181.901 87.3 181.901 88.6V90.95C181.901 92.3167 182.101 93.525 182.501 94.575C182.918 95.625 183.526 96.45 184.326 97.05C185.143 97.65 186.168 97.95 187.401 97.95C188.551 97.95 189.518 97.6833 190.301 97.15C191.085 96.6167 191.585 95.8167 191.801 94.75H197.751C197.501 96.3167 196.91 97.7 195.976 98.9C195.06 100.083 193.868 101.017 192.401 101.7C190.935 102.367 189.268 102.7 187.401 102.7ZM213.815 102.7C211.782 102.7 209.923 102.167 208.24 101.1C206.573 100.017 205.24 98.5083 204.24 96.575C203.257 94.625 202.765 92.35 202.765 89.75C202.765 87.1833 203.24 84.95 204.19 83.05C205.157 81.1333 206.44 79.6583 208.04 78.625C209.657 77.575 211.448 77.05 213.415 77.05C215.215 77.05 216.773 77.4833 218.09 78.35C219.407 79.2 220.415 80.4667 221.115 82.15C221.815 83.8333 222.165 85.9 222.165 88.35H220.315C220.315 87.0833 220.057 86.0083 219.54 85.125C219.023 84.225 218.34 83.5417 217.49 83.075C216.657 82.5917 215.748 82.35 214.765 82.35C213.582 82.35 212.532 82.6583 211.615 83.275C210.715 83.8917 210.007 84.7583 209.49 85.875C208.973 86.975 208.715 88.2667 208.715 89.75C208.715 91.2833 208.973 92.6167 209.49 93.75C210.007 94.8833 210.715 95.7667 211.615 96.4C212.532 97.0333 213.565 97.35 214.715 97.35C215.648 97.35 216.54 97.1 217.39 96.6C218.257 96.0833 218.957 95.3667 219.49 94.45C220.04 93.5333 220.315 92.4667 220.315 91.25H222.165C222.165 93.8 221.782 95.925 221.015 97.625C220.265 99.3083 219.257 100.575 217.99 101.425C216.723 102.275 215.332 102.7 213.815 102.7ZM221.415 102L220.315 96V67.7H226.265V102H221.415ZM239.028 73.3C237.878 73.3 236.978 73 236.328 72.4C235.694 71.7833 235.378 70.9333 235.378 69.85C235.378 68.8 235.694 67.9667 236.328 67.35C236.978 66.7167 237.878 66.4 239.028 66.4C240.161 66.4 241.053 66.7167 241.703 67.35C242.353 67.9667 242.678 68.8 242.678 69.85C242.678 70.9333 242.353 71.7833 241.703 72.4C241.053 73 240.161 73.3 239.028 73.3ZM236.078 102V77.65H241.978V102H236.078ZM261.184 102.7C259.151 102.7 257.259 102.175 255.509 101.125C253.776 100.058 252.367 98.5667 251.284 96.65C250.217 94.7167 249.684 92.45 249.684 89.85C249.684 87.1 250.217 84.775 251.284 82.875C252.367 80.9583 253.776 79.5083 255.509 78.525C257.259 77.5417 259.151 77.05 261.184 77.05C262.767 77.05 264.159 77.3083 265.359 77.825C266.576 78.325 267.609 79.0083 268.459 79.875C269.309 80.725 269.976 81.675 270.459 82.725C270.942 83.775 271.251 84.8333 271.384 85.9L265.434 86.05C265.167 84.9833 264.667 84.1 263.934 83.4C263.217 82.7 262.284 82.35 261.134 82.35C260.184 82.35 259.292 82.6167 258.459 83.15C257.626 83.6667 256.942 84.475 256.409 85.575C255.892 86.675 255.634 88.1 255.634 89.85C255.634 91.5167 255.876 92.9083 256.359 94.025C256.859 95.125 257.526 95.9583 258.359 96.525C259.192 97.075 260.117 97.35 261.134 97.35C262.634 97.35 263.726 96.9917 264.409 96.275C265.092 95.5417 265.434 94.5667 265.434 93.35H271.384C271.384 95.0667 270.992 96.6333 270.209 98.05C269.426 99.4667 268.276 100.6 266.759 101.45C265.242 102.283 263.384 102.7 261.184 102.7ZM293.899 102L293.149 96.1V86.35C293.149 84.65 292.799 83.3917 292.099 82.575C291.415 81.7583 290.249 81.35 288.599 81.35C287.649 81.35 286.824 81.4917 286.124 81.775C285.424 82.0583 284.882 82.4667 284.499 83C284.132 83.5167 283.949 84.15 283.949 84.9H277.499C277.499 83.0667 277.94 81.575 278.824 80.425C279.707 79.2583 280.974 78.4083 282.624 77.875C284.29 77.325 286.282 77.05 288.599 77.05C290.699 77.05 292.532 77.3917 294.099 78.075C295.665 78.7417 296.882 79.775 297.749 81.175C298.615 82.575 299.049 84.3667 299.049 86.55V102H293.899ZM285.949 102.7C283.865 102.7 282.124 102.342 280.724 101.625C279.34 100.892 278.299 99.9333 277.599 98.75C276.899 97.5667 276.549 96.2833 276.549 94.9C276.549 93.3667 276.949 92.0833 277.749 91.05C278.565 90 279.715 89.2167 281.199 88.7C282.682 88.1667 284.432 87.9 286.449 87.9C287.765 87.9 289.007 88 290.174 88.2C291.357 88.4 292.532 88.6667 293.699 89V92.45C292.782 92.15 291.782 91.9167 290.699 91.75C289.615 91.5833 288.599 91.5 287.649 91.5C286.249 91.5 285.099 91.7583 284.199 92.275C283.299 92.7917 282.849 93.6667 282.849 94.9C282.849 95.8 283.215 96.575 283.949 97.225C284.682 97.875 285.849 98.2 287.449 98.2C288.665 98.2 289.699 97.9333 290.549 97.4C291.399 96.8667 292.04 96.2 292.474 95.4C292.924 94.6 293.149 93.8 293.149 93H294.549C294.549 94.75 294.224 96.3667 293.574 97.85C292.924 99.3167 291.957 100.492 290.674 101.375C289.407 102.258 287.832 102.7 285.949 102.7ZM307.697 102V67.7H313.597V102H307.697ZM347.378 102.7C344.528 102.7 342.044 102.025 339.928 100.675C337.828 99.3083 336.194 97.3583 335.028 94.825C333.861 92.2917 333.278 89.25 333.278 85.7C333.278 82.0333 333.878 78.9583 335.078 76.475C336.294 73.975 337.961 72.0917 340.078 70.825C342.211 69.5417 344.644 68.9 347.378 68.9C351.161 68.9 354.111 69.8167 356.228 71.65C358.361 73.4833 359.728 75.8667 360.328 78.8L354.028 79.95C353.511 78.25 352.686 76.875 351.553 75.825C350.419 74.775 349.028 74.25 347.378 74.25C345.928 74.25 344.619 74.675 343.453 75.525C342.286 76.3583 341.353 77.625 340.653 79.325C339.969 81.025 339.628 83.15 339.628 85.7C339.628 88.1 339.928 90.1667 340.528 91.9C341.144 93.6333 342.028 94.9667 343.178 95.9C344.328 96.8333 345.728 97.3 347.378 97.3C349.494 97.3 351.128 96.7417 352.278 95.625C353.444 94.4917 354.028 93.05 354.028 91.3H360.328C360.328 93.7167 359.803 95.775 358.753 97.475C357.719 99.1583 356.236 100.45 354.303 101.35C352.369 102.25 350.061 102.7 347.378 102.7ZM376.817 102.7C374.601 102.7 372.592 102.225 370.792 101.275C369.009 100.325 367.592 98.9083 366.542 97.025C365.492 95.125 364.967 92.75 364.967 89.9C364.967 87 365.492 84.6 366.542 82.7C367.592 80.8 369.009 79.3833 370.792 78.45C372.592 77.5167 374.601 77.05 376.817 77.05C379.001 77.05 380.976 77.5167 382.742 78.45C384.526 79.3833 385.942 80.8 386.992 82.7C388.042 84.6 388.567 87 388.567 89.9C388.567 92.75 388.042 95.125 386.992 97.025C385.942 98.9083 384.526 100.325 382.742 101.275C380.976 102.225 379.001 102.7 376.817 102.7ZM376.617 97.55C377.784 97.55 378.817 97.2667 379.717 96.7C380.634 96.1167 381.351 95.2583 381.867 94.125C382.401 92.9917 382.667 91.5833 382.667 89.9C382.667 87.3333 382.159 85.4 381.142 84.1C380.142 82.8 378.767 82.15 377.017 82.15C375.834 82.15 374.784 82.4417 373.867 83.025C372.951 83.5917 372.226 84.45 371.692 85.6C371.176 86.75 370.917 88.1833 370.917 89.9C370.917 92.4333 371.426 94.3417 372.442 95.625C373.476 96.9083 374.867 97.55 376.617 97.55ZM391.538 77.75H398.338L404.137 96.95H403.688L409.488 77.75H416.288L407.238 102H400.588L391.538 77.75ZM430.565 102.7C428.499 102.7 426.607 102.167 424.89 101.1C423.174 100.033 421.799 98.5417 420.765 96.625C419.732 94.6917 419.215 92.4333 419.215 89.85C419.215 87.1833 419.724 84.8917 420.74 82.975C421.774 81.0583 423.149 79.5917 424.865 78.575C426.582 77.5583 428.482 77.05 430.565 77.05C432.499 77.05 434.165 77.4417 435.565 78.225C436.982 78.9917 438.115 80.0417 438.965 81.375C439.832 82.6917 440.415 84.1833 440.715 85.85C441.015 87.5167 441.032 89.2333 440.765 91H423.915V87.8H436.59L435.44 88.55C435.49 87.7667 435.449 86.975 435.315 86.175C435.199 85.375 434.965 84.6417 434.615 83.975C434.265 83.3083 433.765 82.775 433.115 82.375C432.482 81.9583 431.665 81.75 430.665 81.75C429.465 81.75 428.449 82.05 427.615 82.65C426.782 83.25 426.149 84.0667 425.715 85.1C425.282 86.1333 425.065 87.3 425.065 88.6V90.95C425.065 92.3167 425.265 93.525 425.665 94.575C426.082 95.625 426.69 96.45 427.49 97.05C428.307 97.65 429.332 97.95 430.565 97.95C431.715 97.95 432.682 97.6833 433.465 97.15C434.249 96.6167 434.749 95.8167 434.965 94.75H440.915C440.665 96.3167 440.074 97.7 439.14 98.9C438.224 100.083 437.032 101.017 435.565 101.7C434.099 102.367 432.432 102.7 430.565 102.7ZM448.029 102V77.65H453.929V102H448.029ZM452.479 91.35C452.479 88.1667 452.837 85.5333 453.554 83.45C454.271 81.3667 455.229 79.825 456.429 78.825C457.646 77.8083 458.996 77.3 460.479 77.3C460.879 77.3 461.254 77.325 461.604 77.375C461.971 77.425 462.329 77.5 462.679 77.6L462.579 83.5C462.146 83.4 461.679 83.3167 461.179 83.25C460.679 83.1833 460.229 83.15 459.829 83.15C458.529 83.15 457.437 83.4667 456.554 84.1C455.687 84.7167 455.029 85.6333 454.579 86.85C454.146 88.0667 453.929 89.5667 453.929 91.35H452.479ZM483.108 102L482.358 96.1V86.35C482.358 84.65 482.008 83.3917 481.308 82.575C480.624 81.7583 479.458 81.35 477.808 81.35C476.858 81.35 476.033 81.4917 475.333 81.775C474.633 82.0583 474.091 82.4667 473.708 83C473.341 83.5167 473.158 84.15 473.158 84.9H466.708C466.708 83.0667 467.149 81.575 468.033 80.425C468.916 79.2583 470.183 78.4083 471.833 77.875C473.499 77.325 475.491 77.05 477.808 77.05C479.908 77.05 481.741 77.3917 483.308 78.075C484.874 78.7417 486.091 79.775 486.958 81.175C487.824 82.575 488.258 84.3667 488.258 86.55V102H483.108ZM475.158 102.7C473.074 102.7 471.333 102.342 469.933 101.625C468.549 100.892 467.508 99.9333 466.808 98.75C466.108 97.5667 465.758 96.2833 465.758 94.9C465.758 93.3667 466.158 92.0833 466.958 91.05C467.774 90 468.924 89.2167 470.408 88.7C471.891 88.1667 473.641 87.9 475.658 87.9C476.974 87.9 478.216 88 479.383 88.2C480.566 88.4 481.741 88.6667 482.908 89V92.45C481.991 92.15 480.991 91.9167 479.908 91.75C478.824 91.5833 477.808 91.5 476.858 91.5C475.458 91.5 474.308 91.7583 473.408 92.275C472.508 92.7917 472.058 93.6667 472.058 94.9C472.058 95.8 472.424 96.575 473.158 97.225C473.891 97.875 475.058 98.2 476.658 98.2C477.874 98.2 478.908 97.9333 479.758 97.4C480.608 96.8667 481.249 96.2 481.683 95.4C482.133 94.6 482.358 93.8 482.358 93H483.758C483.758 94.75 483.433 96.3667 482.783 97.85C482.133 99.3167 481.166 100.492 479.883 101.375C478.616 102.258 477.041 102.7 475.158 102.7ZM506.256 114.55C503.473 114.55 501.089 114.167 499.106 113.4C497.139 112.633 495.631 111.625 494.581 110.375C493.531 109.142 493.006 107.8 493.006 106.35C493.006 104.633 493.631 103.3 494.881 102.35C496.131 101.417 497.706 100.95 499.606 100.95L503.906 102.55C502.273 102.55 501.014 102.858 500.131 103.475C499.248 104.092 498.806 104.95 498.806 106.05C498.806 107.2 499.464 108.117 500.781 108.8C502.114 109.5 503.939 109.85 506.256 109.85C507.939 109.85 509.398 109.6 510.631 109.1C511.864 108.6 512.814 107.95 513.481 107.15C514.164 106.35 514.506 105.5 514.506 104.6C514.506 104 514.306 103.508 513.906 103.125C513.506 102.742 512.889 102.55 512.056 102.55H503.906C502.273 102.55 500.781 102.292 499.431 101.775C498.098 101.242 497.031 100.533 496.231 99.65C495.448 98.75 495.056 97.75 495.056 96.65C495.056 95.6333 495.339 94.7583 495.906 94.025C496.473 93.275 497.239 92.7 498.206 92.3C499.189 91.9 500.289 91.7 501.506 91.7L503.006 93.65C502.523 93.65 502.056 93.75 501.606 93.95C501.173 94.1333 500.814 94.4083 500.531 94.775C500.248 95.1417 500.106 95.6 500.106 96.15C500.106 96.8167 500.389 97.3583 500.956 97.775C501.523 98.1917 502.506 98.4 503.906 98.4H512.056C514.639 98.4 516.664 98.875 518.131 99.825C519.614 100.775 520.356 102.233 520.356 104.2C520.356 105.95 519.781 107.608 518.631 109.175C517.481 110.758 515.848 112.05 513.731 113.05C511.631 114.05 509.139 114.55 506.256 114.55ZM506.556 94.5C504.639 94.5 502.881 94.1417 501.281 93.425C499.698 92.6917 498.431 91.675 497.481 90.375C496.531 89.075 496.056 87.55 496.056 85.8C496.056 84.0167 496.531 82.4667 497.481 81.15C498.431 79.8333 499.698 78.825 501.281 78.125C502.881 77.4083 504.639 77.05 506.556 77.05C508.423 77.05 510.148 77.4083 511.731 78.125C513.314 78.825 514.589 79.8333 515.556 81.15C516.523 82.4667 517.006 84.0167 517.006 85.8C517.006 87.55 516.523 89.075 515.556 90.375C514.589 91.675 513.314 92.6917 511.731 93.425C510.148 94.1417 508.423 94.5 506.556 94.5ZM506.606 90.4C508.139 90.4 509.289 89.9583 510.056 89.075C510.823 88.1917 511.206 87.1 511.206 85.8C511.206 84.4 510.814 83.275 510.031 82.425C509.264 81.575 508.106 81.15 506.556 81.15C505.056 81.15 503.906 81.575 503.106 82.425C502.306 83.275 501.906 84.4 501.906 85.8C501.906 87.1 502.306 88.1917 503.106 89.075C503.923 89.9583 505.089 90.4 506.606 90.4ZM515.156 80.95L512.456 79.4C512.456 77.95 512.789 76.6833 513.456 75.6C514.139 74.5 515.039 73.65 516.156 73.05C517.289 72.45 518.539 72.15 519.906 72.15L519.606 77.8C518.156 77.8 517.048 78.0583 516.281 78.575C515.531 79.075 515.156 79.8667 515.156 80.95ZM535.057 102.7C532.991 102.7 531.099 102.167 529.382 101.1C527.666 100.033 526.291 98.5417 525.257 96.625C524.224 94.6917 523.707 92.4333 523.707 89.85C523.707 87.1833 524.216 84.8917 525.232 82.975C526.266 81.0583 527.641 79.5917 529.357 78.575C531.074 77.5583 532.974 77.05 535.057 77.05C536.991 77.05 538.657 77.4417 540.057 78.225C541.474 78.9917 542.607 80.0417 543.457 81.375C544.324 82.6917 544.907 84.1833 545.207 85.85C545.507 87.5167 545.524 89.2333 545.257 91H528.407V87.8H541.082L539.932 88.55C539.982 87.7667 539.941 86.975 539.807 86.175C539.691 85.375 539.457 84.6417 539.107 83.975C538.757 83.3083 538.257 82.775 537.607 82.375C536.974 81.9583 536.157 81.75 535.157 81.75C533.957 81.75 532.941 82.05 532.107 82.65C531.274 83.25 530.641 84.0667 530.207 85.1C529.774 86.1333 529.557 87.3 529.557 88.6V90.95C529.557 92.3167 529.757 93.525 530.157 94.575C530.574 95.625 531.182 96.45 531.982 97.05C532.799 97.65 533.824 97.95 535.057 97.95C536.207 97.95 537.174 97.6833 537.957 97.15C538.741 96.6167 539.241 95.8167 539.457 94.75H545.407C545.157 96.3167 544.566 97.7 543.632 98.9C542.716 100.083 541.524 101.017 540.057 101.7C538.591 102.367 536.924 102.7 535.057 102.7Z" fill="#18575B"/>
</svg>
