<svg width="88" height="89" viewBox="0 0 88 89" fill="none" xmlns="http://www.w3.org/2000/svg">
<path d="M45.1688 54.1784C47.5966 53.5474 49.4033 51.3568 49.4033 48.7328C49.4033 45.6191 46.8711 43.0869 43.7573 43.0869C42.2004 43.0869 40.9343 41.8208 40.9343 40.2639C40.9343 38.707 42.2004 37.4409 43.7573 37.4409C45.3142 37.4409 46.5803 38.707 46.5803 40.2639H49.4033C49.4033 37.6399 47.5966 35.4493 45.1688 34.8183V31.7949H42.3458V34.8183C39.918 35.4493 38.1113 37.6399 38.1113 40.2639C38.1113 43.3776 40.6435 45.9099 43.7573 45.9099C45.3142 45.9099 46.5803 47.176 46.5803 48.7328C46.5803 50.2897 45.3142 51.5558 43.7573 51.5558C42.2004 51.5558 40.9343 50.2897 40.9343 48.7328H38.1113C38.1113 51.3568 39.918 53.5474 42.3458 54.1784V57.2018H45.1688V54.1784Z" fill="#18575B"/>
<path d="M43.7527 26.1504C33.6351 26.1504 25.4033 34.3822 25.4033 44.4998H28.2263C28.2263 35.9391 35.192 28.9734 43.7527 28.9734V26.1504Z" fill="#18575B"/>
<path d="M59.2842 44.5C59.2842 53.0607 52.3185 60.0264 43.7578 60.0264V62.8494C53.8754 62.8494 62.1072 54.6176 62.1072 44.5H59.2842Z" fill="#18575B"/>
<path d="M29.0811 10.8555C24.656 12.7878 20.7053 15.5388 17.3389 19.0308L19.37 20.9914C22.4795 17.7676 26.1268 15.2269 30.2117 13.4413L29.0811 10.8555Z" fill="#18575B"/>
<path d="M34.9529 8.86523C33.9594 9.10938 32.9715 9.39728 32.0146 9.72046L32.9207 12.3948C33.8013 12.097 34.713 11.8317 35.6275 11.6045L34.9529 8.86523Z" fill="#18575B"/>
<path d="M40.8202 7.91406C39.8563 7.99027 38.8684 8.10882 37.8848 8.26547L38.3307 11.0527C39.2396 10.9059 40.1513 10.7973 41.0404 10.7295L40.8202 7.91406Z" fill="#18575B"/>
<path d="M43.7563 3.56517C54.6911 3.56517 64.9696 7.82365 72.7004 15.5544C73.2297 16.0837 74.1669 16.0837 74.6962 15.5544L77.6321 12.6185V23.3261H66.9246L69.7066 20.544C70.2585 19.9921 70.2585 19.1001 69.7066 18.5482C62.7748 11.6163 53.5591 7.79965 43.7563 7.79965V10.6226C52.3325 10.6226 60.4232 13.7886 66.6917 19.5673L62.5193 23.7396C62.1156 24.1433 61.9942 24.7503 62.213 25.2782C62.4318 25.8061 62.947 26.1491 63.5172 26.1491H79.0436C79.8228 26.1491 80.4551 25.5181 80.4551 24.7376V9.21115C80.4551 8.6409 80.1107 8.1243 79.5842 7.90693C79.0535 7.68532 78.4494 7.80812 78.0457 8.21322L73.6828 12.5761C65.5455 4.93432 54.9734 0.742188 43.7563 0.742188C19.6296 0.742188 0 20.3704 0 44.4985H2.82299C2.82299 21.9287 21.1851 3.56517 43.7563 3.56517Z" fill="#18575B"/>
<path d="M70.1824 69.9625L68.1513 68.002C65.0417 71.2258 61.3944 73.7665 57.3096 75.552L58.4402 78.1379C62.8652 76.2056 66.8146 73.4546 70.1824 69.9625Z" fill="#18575B"/>
<path d="M52.5593 80.1272C53.5529 79.8831 54.5408 79.5952 55.4976 79.272L54.5916 76.5977C53.7109 76.8954 52.7993 77.1608 51.8848 77.388L52.5593 80.1272Z" fill="#18575B"/>
<path d="M46.6879 81.0781C47.6518 81.0019 48.6397 80.8834 49.6234 80.7267L49.1774 77.9395C48.2685 78.0862 47.3569 78.1949 46.4678 78.2626L46.6879 81.0781Z" fill="#18575B"/>
<path d="M84.6927 44.5C84.6927 67.0698 66.3306 85.4333 43.7594 85.4333C32.8245 85.4333 22.546 81.1748 14.8153 73.4441C14.286 72.9148 13.3488 72.9148 12.8194 73.4441L9.88353 76.38V65.6724H20.5911L17.8091 68.4545C17.2572 69.0063 17.2572 69.8984 17.8091 70.4503C24.7409 77.3821 33.9566 81.1988 43.7594 81.1988V78.3758C35.1831 78.3758 27.0925 75.2099 20.824 69.4312L24.9964 65.2588C25.4001 64.8551 25.5215 64.2482 25.3027 63.7203C25.0839 63.1924 24.5687 62.8494 23.9985 62.8494H8.47204C7.6929 62.8494 7.06055 63.4804 7.06055 64.2609V79.7873C7.06055 80.3576 7.40495 80.8742 7.93144 81.0916C8.45934 81.3117 9.06628 81.1889 9.46997 80.7853L13.8329 76.4223C21.9702 84.0642 32.5422 88.2563 43.7594 88.2563C67.886 88.2563 87.5157 68.6281 87.5157 44.5H84.6927Z" fill="#18575B"/>
<path d="M67.7476 44.4993C67.7476 31.268 56.9836 20.5039 43.7522 20.5039C30.5209 20.5039 19.7568 31.268 19.7568 44.4993C19.7568 57.7306 30.5209 68.4947 43.7522 68.4947C56.9836 68.4947 67.7476 57.7306 67.7476 44.4993ZM43.7522 65.6717C32.0778 65.6717 22.5798 56.1738 22.5798 44.4993C22.5798 32.8248 32.0778 23.3269 43.7522 23.3269C55.4267 23.3269 64.9246 32.8248 64.9246 44.4993C64.9246 56.1738 55.4267 65.6717 43.7522 65.6717Z" fill="#18575B"/>
</svg>
