<svg width="180" height="180" viewBox="0 0 180 180" fill="none" xmlns="http://www.w3.org/2000/svg">
<g clip-path="url(#clip0_122_2465)">
<path d="M112.801 14.999H96.4769C95.0035 14.999 93.809 16.1935 93.809 17.6669V27.7748H83.7011C82.2277 27.7748 81.0332 28.9694 81.0332 30.4428V46.7673C81.0332 48.2407 82.2277 49.4352 83.7011 49.4352H93.809V59.5427C93.809 61.0161 95.0035 62.2106 96.4769 62.2106H112.801C114.275 62.2106 115.469 61.0161 115.469 59.5427V49.4348H125.577C127.051 49.4348 128.245 48.2403 128.245 46.7669V30.4428C128.245 28.9694 127.051 27.7748 125.577 27.7748H115.469V17.6669C115.469 16.1935 114.275 14.999 112.801 14.999ZM122.909 33.1107V44.0993H112.801C111.328 44.0993 110.134 45.2939 110.134 46.7673V56.8748H99.1449V46.7669C99.1449 45.2935 97.9503 44.099 96.4769 44.099H86.3691V33.1107H96.4769C97.9503 33.1107 99.1449 31.9162 99.1449 30.4428V20.3349H110.134V30.4428C110.134 31.9162 111.328 33.1107 112.801 33.1107H122.909Z" fill="#18575B"/>
<path d="M179.5 112.324C179.012 110.559 178.192 108.923 177.059 107.459C172.78 101.938 164.967 100.45 158.979 103.902V29.9373C158.979 29.2298 158.698 28.5511 158.197 28.0509L133.93 3.78348C133.429 3.28297 132.751 3.00195 132.043 3.00195H52.9695C51.4961 3.00195 50.3016 4.19647 50.3016 5.66988V39.6696C50.3016 41.143 51.4961 42.3375 52.9695 42.3375C54.4429 42.3375 55.6374 41.143 55.6374 39.6696V8.3378H129.375V29.9373C129.375 31.4107 130.57 32.6053 132.043 32.6053H153.643V107.341L121.453 128.237C118.202 130.346 114.311 131.142 110.5 130.48L80.4648 125.25L96.3585 115.721C103.562 111.405 106.068 102.243 102.064 94.8615C101.864 94.494 101.651 94.139 101.427 93.7936H141.192C142.666 93.7936 143.86 92.5991 143.86 91.1257C143.86 89.6523 142.666 88.4578 141.192 88.4578H95.5919C92.1901 86.6702 88.1519 86.1591 84.2137 87.2387C83.2789 87.4927 82.3558 87.8406 81.4693 88.2735L81.0915 88.4581H68.0877C66.6143 88.4581 65.4198 89.6526 65.4198 91.126C65.4198 92.5994 66.6143 93.794 68.0877 93.794H70.1673L55.6374 100.891V50.3413C55.6374 48.8679 54.4429 47.6734 52.9695 47.6734C51.4961 47.6734 50.3016 48.8679 50.3016 50.3413V103.497L41.3202 107.883C40.6739 108.196 40.0371 108.557 39.4363 108.951C34.7511 111.992 31.8327 117.081 31.4987 122.587L28.2481 123.488C27.9063 122.651 27.5623 121.815 27.2155 120.981C26.7559 119.876 25.6183 119.214 24.4291 119.358C16.1382 120.37 8.34148 123.124 1.25582 127.546C0.240589 128.18 -0.22861 129.411 0.107904 130.56C4.5484 145.708 9.87394 160.779 15.9365 175.355C16.3542 176.358 17.3324 176.998 18.3985 176.998C18.5059 176.998 18.6141 176.991 18.7229 176.978C27.0134 175.966 34.8102 173.211 41.8962 168.79C42.9114 168.156 43.3806 166.924 43.0441 165.776C42.8986 165.279 42.7495 164.784 42.6023 164.287L52.2538 160.717L113.454 168.166C114.28 168.266 115.111 168.316 115.94 168.316C118.544 168.316 121.14 167.824 123.562 166.862C124.932 166.318 125.601 164.767 125.057 163.398C124.513 162.028 122.962 161.36 121.592 161.903C119.225 162.843 116.634 163.177 114.099 162.869L52.2566 155.342C51.8344 155.289 51.4068 155.34 51.0087 155.488L41.0485 159.172C37.8359 148.829 34.22 138.55 30.2462 128.47L34.8781 127.187C36.0961 126.85 36.91 125.704 36.8282 124.442C36.5415 120.04 38.6541 115.819 42.3501 113.42C42.7684 113.146 43.2042 112.899 43.6538 112.681L83.8103 93.0669C84.3951 92.7816 85.0017 92.5525 85.6185 92.3849C90.2475 91.1164 95.0811 93.1811 97.3734 97.4053C100.011 102.266 98.3601 108.301 93.6155 111.144L71.5713 124.359C70.6151 124.932 70.1164 126.039 70.3202 127.135C70.5241 128.231 71.3874 129.084 72.4855 129.276L109.585 135.736C114.728 136.629 119.974 135.556 124.357 132.713L161.254 108.761C165.069 106.281 170.051 107.126 172.84 110.725C173.545 111.636 174.055 112.652 174.355 113.738C175.262 117.051 174.135 120.579 171.483 122.753C171.457 122.773 171.432 122.793 171.407 122.813L129.684 156.283C128.534 157.205 128.35 158.884 129.272 160.033C129.799 160.69 130.573 161.032 131.355 161.032C131.94 161.032 132.53 160.84 133.023 160.445L174.662 127.042C174.691 127.02 174.72 126.998 174.749 126.975C179.113 123.474 180.979 117.725 179.5 112.324ZM20.0757 171.399C14.6737 158.232 9.88318 144.674 5.81335 131.037C11.1812 127.968 16.9713 125.921 23.0763 124.937C28.4783 138.104 33.2688 151.662 37.3386 165.299C31.9708 168.369 26.1807 170.415 20.0757 171.399ZM134.711 12.111L149.87 27.2694H134.711V12.111Z" fill="#18575B"/>
<path d="M85.2801 112.732C86.364 112.732 87.4646 112.471 88.4873 111.925L91.7945 110.162C93.0947 109.468 93.5866 107.852 92.893 106.552C92.1997 105.252 90.5829 104.76 89.2834 105.454L85.9763 107.217C85.3306 107.561 84.5128 107.365 84.1148 106.77C81.8961 103.457 81.2035 100.077 81.1932 100.025C80.9122 98.5822 79.517 97.6389 78.0721 97.9153C76.625 98.1927 75.677 99.5907 75.9545 101.038C75.989 101.217 76.8303 105.482 79.6814 109.739C80.9752 111.672 83.0953 112.732 85.2801 112.732Z" fill="#18575B"/>
<path d="M25.9517 164.304C27.19 164.304 28.2753 163.424 28.5517 162.222C29.092 159.872 26.3455 158.092 24.4011 159.467C23.4211 160.16 23.0305 161.479 23.4631 162.596C23.8572 163.615 24.8575 164.304 25.9517 164.304Z" fill="#18575B"/>
<path d="M65.4189 71.6084C65.4189 73.0818 66.6135 74.2763 68.0869 74.2763H141.192C142.665 74.2763 143.86 73.0818 143.86 71.6084C143.86 70.1349 142.665 68.9404 141.192 68.9404H68.0869C66.6135 68.9404 65.4189 70.1349 65.4189 71.6084Z" fill="#18575B"/>
<path d="M130.557 78.6997C129.083 78.6997 127.889 79.8942 127.889 81.3676C127.889 82.841 129.083 84.0356 130.557 84.0356H141.193C142.666 84.0356 143.861 82.841 143.861 81.3676C143.861 79.8942 142.666 78.6997 141.193 78.6997H130.557Z" fill="#18575B"/>
<path d="M68.0878 78.6997C66.6144 78.6997 65.4199 79.8942 65.4199 81.3676C65.4199 82.841 66.6144 84.0356 68.0878 84.0356H119.885C121.358 84.0356 122.553 82.841 122.553 81.3676C122.553 79.8942 121.358 78.6997 119.885 78.6997H68.0878Z" fill="#18575B"/>
</g>
<defs>
<clipPath id="clip0_122_2465">
<rect width="180" height="180" fill="white"/>
</clipPath>
</defs>
</svg>
