<svg width="180" height="180" viewBox="0 0 180 180" fill="none" xmlns="http://www.w3.org/2000/svg">
<path d="M20.5893 158.996C18.0927 158.468 15.642 157.741 13.2605 156.824C11.0964 155.816 8.62066 155.71 6.37787 156.527C4.13509 157.345 2.30901 159.02 1.30134 161.184C0.293676 163.349 0.186973 165.824 1.0047 168.067C1.82244 170.31 3.49762 172.136 5.66173 173.144C7.16469 173.846 21.1983 179.995 51.0056 179.995C91.9395 179.995 113.149 163.775 114.034 163.082C115.435 161.985 116.48 160.497 117.036 158.806C117.591 157.115 117.633 155.298 117.156 153.583C116.679 151.868 115.704 150.334 114.355 149.173C113.006 148.012 111.343 147.278 109.576 147.062C108.406 146.914 107.218 146.999 106.081 147.314C104.944 147.63 103.882 148.168 102.955 148.898C101.262 150.088 99.4795 151.146 97.6244 152.063C92.9195 138.227 90.0442 123.836 89.0716 109.254C89.2606 109.149 89.4616 109.056 89.6506 108.954C91.7008 107.762 93.1975 105.809 93.8155 103.519C94.4334 101.229 94.1226 98.7883 92.9505 96.7266C92.3731 95.6954 91.5957 94.7898 90.6638 94.063C89.732 93.3361 88.6644 92.8026 87.5236 92.4937C86.3796 92.1782 85.1844 92.0922 84.0069 92.2404C82.8295 92.3887 81.693 92.7684 80.6628 93.3577C80.5098 93.4447 65.5132 101.727 30.8641 106.443C27.4952 92.3998 22.9369 78.6686 17.2384 65.3984C16.5236 63.7721 15.3434 62.3937 13.8466 61.4369C12.3498 60.4801 10.6033 59.9877 8.82717 60.0217C7.05101 60.0557 5.32465 60.6146 3.86556 61.628C2.40647 62.6413 1.27993 64.0639 0.627858 65.7164C0.192765 66.8148 -0.0201304 67.9886 0.00149706 69.1699C0.0231245 70.3512 0.278845 71.5164 0.753855 72.5982C11.7911 100.199 18.4824 129.345 20.5893 158.996ZM106.633 153.629C107.262 153.169 108.045 152.972 108.817 153.079C109.589 153.186 110.289 153.589 110.768 154.203C111.248 154.817 111.47 155.593 111.388 156.368C111.305 157.143 110.924 157.855 110.326 158.354C109.504 158.996 89.8846 173.996 51.0056 173.996C22.0023 173.996 8.74865 167.966 8.20566 167.711C7.5883 167.421 7.08827 166.929 6.78806 166.316C6.48785 165.703 6.40538 165.007 6.55425 164.341C6.70312 163.675 7.07445 163.08 7.60698 162.654C8.13952 162.228 8.80146 161.995 9.48363 161.996C9.92832 161.995 10.3677 162.093 10.7706 162.281C11.2926 162.521 23.8203 167.996 51.0056 167.996C87.8686 167.996 106.447 153.776 106.633 153.632V153.629ZM36.6629 137.397L73.838 132.174C74.542 136.092 75.355 139.88 76.2769 143.54L37.8779 148.853C37.5449 145.043 37.1549 141.221 36.6629 137.397ZM71.6061 116.238C71.957 119.76 72.365 123.081 72.83 126.258L35.784 131.472C35.415 129.015 35.052 126.558 34.617 124.116C43.8101 122.845 52.9296 121.088 61.9373 118.854C64.9522 118.083 68.2371 117.24 71.6061 116.25V116.238ZM38.3309 154.859L77.8309 149.396C78.7149 152.516 79.6798 155.501 80.7258 158.351C71.0169 160.838 61.0278 162.063 51.0056 161.996C46.4757 161.996 42.3958 161.831 38.7059 161.567C38.6069 159.332 38.4779 157.097 38.3309 154.859ZM92.1435 154.559C90.4486 155.255 88.5856 155.966 86.4947 156.659C85.1747 153.083 83.9387 149.315 82.8708 145.259C81.354 139.684 80.1304 134.034 79.2049 128.331C78.4969 123.996 77.9209 119.388 77.4439 114.369C79.3998 113.685 81.3438 112.944 83.2608 112.113C84.4013 126.585 87.3864 140.853 92.1435 154.568V154.559ZM83.6357 98.5535C83.9798 98.3578 84.3592 98.2322 84.752 98.1838C85.1449 98.1354 85.5434 98.1652 85.9247 98.2715C86.3045 98.3735 86.6597 98.5513 86.9691 98.7941C87.2784 99.0369 87.5354 99.3398 87.7246 99.6845C87.9234 100.023 88.0529 100.397 88.1057 100.785C88.1584 101.174 88.1335 101.569 88.0321 101.948C87.9308 102.327 87.7551 102.682 87.5154 102.992C87.2757 103.302 86.9766 103.562 86.6357 103.755C78.3675 108.009 69.5649 111.132 60.4643 113.04C51.5626 115.244 42.5501 116.973 33.465 118.221C33.069 116.244 32.706 114.258 32.2651 112.293C68.1051 107.337 83.6447 98.5535 83.6357 98.5535ZM6.21372 67.9093C6.42613 67.3557 6.79875 66.878 7.28397 66.5373C7.7692 66.1965 8.345 66.0081 8.93781 65.9962C9.53062 65.9843 10.1135 66.1494 10.6121 66.4704C11.1106 66.7914 11.5021 67.2537 11.7366 67.7983C24.236 97.364 31.3234 128.934 32.661 161.006C30.4611 160.754 28.4612 160.478 26.6612 160.178C24.6413 129.297 17.7556 98.9299 6.25871 70.1982C5.94172 69.4712 5.92555 68.6482 6.21372 67.9093Z" fill="#18575B"/>
<path d="M174 8.01645e-05H79.4246C76.6356 -0.00905955 73.8998 0.763499 71.5275 2.23014C69.1552 3.69679 67.2413 5.79882 66.0029 8.29787L56.6552 27.0174C50.2883 27.0794 44.0753 28.9821 38.7655 32.4959C33.4558 36.0098 29.2759 40.9847 26.7301 46.8208C24.1843 52.6569 23.3812 59.1048 24.4178 65.3871C25.4543 71.6693 28.2862 77.5175 32.5719 82.2264C36.8576 86.9353 42.414 90.3038 48.5712 91.9257C54.7283 93.5475 61.2232 93.3535 67.2726 91.3669C73.3219 89.3803 78.6673 85.686 82.6642 80.7297C86.6611 75.7733 89.1387 69.7664 89.7983 63.4335L132.874 35.9992H174C175.591 35.9992 177.118 35.367 178.243 34.2419C179.368 33.1167 180 31.5906 180 29.9993V5.99993C180 4.40867 179.368 2.88258 178.243 1.75739C177.118 0.632205 175.591 8.01645e-05 174 8.01645e-05ZM57.0032 86.9979C49.8425 86.9979 42.9751 84.1533 37.9118 79.09C32.8484 74.0266 30.0039 67.1592 30.0039 59.9986C30.0039 52.8379 32.8484 45.9705 37.9118 40.9072C42.9751 35.8438 49.8425 32.9992 57.0032 32.9992C57.4472 32.9992 57.9031 32.9992 58.3441 33.0232C62.3493 33.2134 66.2603 34.3032 69.7866 36.2118C73.3129 38.1204 76.3641 40.7987 78.7136 44.048L75.1317 47.7979C73.3565 49.6025 72.2736 51.9746 72.0728 54.498C71.872 57.0214 72.5663 59.5349 74.0337 61.5975C75.0177 62.9462 76.309 64.0408 77.8006 64.7905C79.2923 65.5402 80.9412 65.9234 82.6105 65.9084C82.8535 65.9084 83.0995 65.8784 83.3455 65.8604C82.0074 71.8513 78.67 77.2083 73.8822 81.0501C69.0945 84.8918 63.1417 86.9895 57.0032 86.9979ZM82.9345 39.6321C81.1516 37.3735 79.0823 35.3566 76.7787 33.6322L78.3086 31.5893C78.6741 31.092 79.1524 30.6886 79.7042 30.4122C80.256 30.1358 80.8654 29.9943 81.4825 29.9993H92.1953C90.0023 32.2553 87.0024 35.3752 82.9345 39.6321ZM174 29.9993H132.001C131.43 29.9987 130.871 30.1622 130.39 30.4703L85.2564 59.2006C84.2918 59.8432 83.122 60.1026 81.9762 59.9281C80.8303 59.7535 79.7908 59.1576 79.0613 58.2569C78.3317 57.3562 77.9646 56.2156 78.0318 55.0585C78.099 53.9013 78.5957 52.8109 79.4246 52.0008C79.4246 52.0008 100.502 29.9303 101.276 29.1173C101.286 29.1007 101.297 29.0846 101.309 29.0693L104.168 26.0694C104.717 25.4934 105.015 24.7229 104.995 23.9273C104.976 23.1318 104.642 22.3765 104.066 21.8275C103.49 21.2785 102.719 20.9809 101.924 21C101.128 21.0191 100.373 21.3535 99.8241 21.9295L97.8531 23.9995H81.4825C79.9342 24.0021 78.4076 24.3642 77.0229 25.057C75.6381 25.7499 74.4332 26.7547 73.5028 27.9924L71.6398 30.4823C68.9311 29.1345 66.0503 28.1644 63.078 27.5994L71.3698 10.9798C72.1128 9.47988 73.2613 8.21822 74.6851 7.338C76.1088 6.45777 77.7507 5.99422 79.4246 5.99993H174V29.9993Z" fill="#18575B"/>
<path d="M57.0056 56.9991C56.4791 56.9986 55.962 56.8596 55.5063 56.5959C55.0506 56.3323 54.6723 55.9534 54.4094 55.4973C54.1465 55.0411 54.0082 54.5239 54.0086 53.9974C54.0089 53.4709 54.1478 52.9538 54.4112 52.498C54.6747 52.0422 55.0534 51.6637 55.5095 51.4007C55.9655 51.1376 56.4828 50.9992 57.0092 50.9993C57.5357 50.9994 58.0529 51.1381 58.5088 51.4014C58.9647 51.6647 59.3433 52.0433 59.6065 52.4992C59.7968 52.8529 60.0562 53.1647 60.3692 53.4162C60.6822 53.6677 61.0426 53.8538 61.4289 53.9635C61.8152 54.0732 62.2196 54.1042 62.6181 54.0547C63.0166 54.0051 63.4011 53.8761 63.7488 53.6753C64.0966 53.4744 64.4004 53.2057 64.6424 52.8852C64.8843 52.5648 65.0595 52.1989 65.1575 51.8095C65.2554 51.4201 65.2742 51.0149 65.2127 50.6181C65.1512 50.2213 65.0106 49.8408 64.7994 49.4993C63.7132 47.6731 62.0146 46.2912 60.0055 45.5994V44.9994C60.0055 44.2038 59.6894 43.4408 59.1268 42.8782C58.5642 42.3156 57.8012 41.9995 57.0056 41.9995C56.2099 41.9995 55.4469 42.3156 54.8843 42.8782C54.3217 43.4408 54.0056 44.2038 54.0056 44.9994V45.5514C52.0057 46.2559 50.3195 47.6454 49.2458 49.4739C48.1722 51.3024 47.7803 53.4519 48.1396 55.5417C48.4989 57.6315 49.5863 59.5266 51.209 60.8915C52.8317 62.2564 54.8851 63.003 57.0056 62.999C57.532 62.9995 58.0491 63.1385 58.5048 63.4022C58.9605 63.6658 59.3388 64.0447 59.6018 64.5008C59.8647 64.957 60.0029 65.4743 60.0026 66.0007C60.0022 66.5272 59.8634 67.0443 59.5999 67.5001C59.3365 67.9559 58.9577 68.3344 58.5017 68.5975C58.0456 68.8605 57.5284 68.999 57.0019 68.9988C56.4754 68.9987 55.9583 68.86 55.5024 68.5967C55.0465 68.3334 54.6679 67.9548 54.4046 67.4989C53.9943 66.8356 53.3417 66.3582 52.5853 66.1679C51.8289 65.9776 51.0282 66.0894 50.3528 66.4796C49.6775 66.8697 49.1806 67.5076 48.9676 68.2579C48.7546 69.0082 48.8422 69.812 49.2118 70.4988C50.2994 72.3261 52.0003 73.7081 54.0116 74.3987V74.9987C54.0116 75.7943 54.3277 76.5573 54.8903 77.1199C55.4529 77.6825 56.2159 77.9986 57.0116 77.9986C57.8072 77.9986 58.5702 77.6825 59.1328 77.1199C59.6954 76.5573 60.0115 75.7943 60.0115 74.9987V74.4467C62.012 73.7421 63.6985 72.352 64.7721 70.5229C65.8457 68.6938 66.2371 66.5436 65.877 64.4534C65.5169 62.3633 64.4285 60.4681 62.8047 59.1037C61.1809 57.7392 59.1265 56.9937 57.0056 56.9991Z" fill="#18575B"/>
</svg>
